<?xml version="1.0" encoding="utf-8"?>
<!-- Generator: Adobe Illustrator 27.1.1, SVG Export Plug-In . SVG Version: 6.00 Build 0)  -->
<svg version="1.1" id="Layer_1" xmlns="http://www.w3.org/2000/svg" xmlns:xlink="http://www.w3.org/1999/xlink" x="0px" y="0px"
	 viewBox="0 0 90 90" style="enable-background:new 0 0 90 90;" xml:space="preserve">
<style type="text/css">
	.st0{fill:#EB540A;}
</style>
<g>
	<path class="st0" d="M74.7,34.4v51h-1.3V39c0-15.7-12.8-28.5-28.4-28.5c-15.7,0-28.5,12.8-28.5,28.5v46.4h-1.3v-51
		C15.3,17.9,28.6,4.6,45,4.6C61.4,4.6,74.7,17.9,74.7,34.4z"/>
	<path class="st0" d="M69.6,37.3v43.3h-1.3V41.2c0-12.8-10.4-23.3-23.3-23.3c-12.8,0-23.3,10.4-23.3,23.3v39.4h-1.3V37.3
		c0-13.6,11-24.6,24.6-24.6C58.6,12.7,69.6,23.7,69.6,37.3z"/>
	<path class="st0" d="M64.4,40.2v35.6h-1.3V43.5c0-10-8.1-18.1-18.1-18.1c-10,0-18.1,8.1-18.1,18.1v32.3h-1.3V40.2
		c0-10.7,8.7-19.4,19.4-19.4C55.7,20.8,64.4,29.5,64.4,40.2z"/>
	<path class="st0" d="M59.2,43.1v27.8H58V45.7c0-7.1-5.8-13-12.9-13c-7.1,0-13,5.8-13,13v25.2h-1.3V43.1c0-7.9,6.4-14.2,14.2-14.2
		C52.9,28.8,59.2,35.2,59.2,43.1z"/>
	<path class="st0" d="M54.1,46v20.1h-1.3V48c0-4.3-3.5-7.8-7.8-7.8c-4.3,0-7.8,3.5-7.8,7.8v18.1h-1.3V46c0-5,4.1-9.1,9.1-9.1
		C50,36.9,54.1,41,54.1,46z"/>
	<path class="st0" d="M48.9,48.9v12.3h-1.3V50.2c0-1.4-1.2-2.6-2.6-2.6c-1.4,0-2.6,1.2-2.6,2.6v11.1h-1.3V48.9
		c0-2.2,1.8-3.9,3.9-3.9C47.2,45,48.9,46.8,48.9,48.9z"/>
</g>
</svg>
