<?xml version="1.0" encoding="utf-8"?>
<!-- Generator: Adobe Illustrator 27.1.1, SVG Export Plug-In . SVG Version: 6.00 Build 0)  -->
<svg version="1.1" id="Layer_1" xmlns="http://www.w3.org/2000/svg" xmlns:xlink="http://www.w3.org/1999/xlink" x="0px" y="0px"
	 viewBox="0 0 700 500" style="enable-background:new 0 0 700 500;" xml:space="preserve">
<style type="text/css">
	.st0{fill:#EB540A;}
</style>
<path class="st0" d="M104.8,231.7H70.4V84.9H31.2V51.4h110.3v33.5h-36.8V231.7z"/>
<path class="st0" d="M238.9,159.3h-41.4v72.4h-33.5V51.4h33.5v73.5h42.2V51.4h34.4v180.4h-35.2V159.3z"/>
<path class="st0" d="M297.1,51.4h110.1v33.5h-76.6v39H391v34.4h-60.4v39.2h76.6v34.4H297.1V51.4z"/>
<path class="st0" d="M31.2,318.6v130h34.4v-54.1H107v54.1h34.3v-130c0-30.4-24.6-55-55-55h0C55.9,263.6,31.2,288.2,31.2,318.6z
	 M107,362.4H64.7v-43.2c0-11.7,9.5-21.1,21.2-21.1c11.6,0,21.1,9.4,21.1,21.1V362.4z"/>
<path class="st0" d="M558.7,318.6v130h34.4v-54.1h41.4v54.1h34.3v-130c0-30.4-24.6-55-55-55h0C583.3,263.6,558.7,288.2,558.7,318.6z
	 M634.4,362.4h-42.3v-43.2c0-11.7,9.5-21.1,21.2-21.1c11.6,0,21.1,9.4,21.1,21.1V362.4z"/>
<path class="st0" d="M274.2,333v-39c0-7.7-2.8-13.8-8.7-18.6c-5.9-4.8-12.7-7.2-20.4-7.2h-81v180.4h33.5v-73.6h30.7
	c7.7,0,11.6,3.9,11.6,11.8v61.7h34.4v-69.4c0-9.9-3.7-16.9-11.4-21C270.5,353.4,274.2,345.1,274.2,333z M239,331.1
	c0,6.4-3.9,9.7-11.8,9.7h-29.6v-39h32c6.4,0,9.4,2.8,9.4,8.7V331.1z"/>
<path class="st0" d="M407.2,301.8v-33.5H297.1v180.4h110.1v-34.4h-76.6v-39.2H391v-34.4h-60.4v-39H407.2z"/>
<path class="st0" d="M499.8,268.2v89.3l-32.6-89.3H430v180.4h36.1v-88.9l34.2,88.9h35.7V268.2H499.8z"/>
</svg>
