<?xml version="1.0" encoding="utf-8"?>
<!-- Generator: Adobe Illustrator 27.1.1, SVG Export Plug-In . SVG Version: 6.00 Build 0)  -->
<svg version="1.1" id="Layer_1" xmlns="http://www.w3.org/2000/svg" xmlns:xlink="http://www.w3.org/1999/xlink" x="0px" y="0px"
	 viewBox="0 0 4000 2200" style="enable-background:new 0 0 4000 2200;" xml:space="preserve">
<style type="text/css">
	.st0{fill:#EB540A;}
</style>
<g>
	<g>
		<path class="st0" d="M2157.4,1072.2H2057V643h-114.5v-97.9h322.4V643h-107.5V1072.2z"/>
		<path class="st0" d="M2549.5,860.4h-120.9v211.7h-97.9V545.1h97.9V760H2552V545.1h100.4v527.1h-103V860.4z"/>
		<path class="st0" d="M2719.5,545.1h321.7V643h-223.9v113.9h176.5v100.4h-176.5v114.5h223.9v100.4h-321.7V545.1z"/>
		<path class="st0" d="M1942.4,1326.1V1706h100.5v-158h120.9v158h100.3v-379.9c0-88.8-72-160.8-160.8-160.8h0
			C2014.5,1165.2,1942.4,1237.2,1942.4,1326.1z M2163.8,1454h-123.6v-126.2c0-34.2,27.7-61.8,61.9-61.8c34,0,61.7,27.6,61.7,61.8
			V1454z"/>
		<path class="st0" d="M3483.9,1326.1V1706h100.5v-158h120.9v158h100.3v-379.9c0-88.8-72-160.8-160.8-160.8h0
			C3555.9,1165.2,3483.9,1237.2,3483.9,1326.1z M3705.2,1454h-123.6v-126.2c0-34.2,27.7-61.8,61.9-61.8c34,0,61.7,27.6,61.7,61.8
			V1454z"/>
		<path class="st0" d="M2652.4,1368.2v-113.9c0-22.4-8.2-40.3-25.6-54.4c-17.3-14.1-37.1-21.1-59.5-21.1h-236.7V1706h97.8V1491h89.6
			c22.4,0,33.9,11.5,33.9,34.5V1706h100.4v-202.7c0-28.8-10.8-49.3-33.2-61.5C2641.6,1427.7,2652.4,1403.4,2652.4,1368.2z
			 M2549.5,1362.4c0,18.6-11.5,28.2-34.5,28.2h-86.4v-113.9h93.4c18.6,0,27.5,8.2,27.5,25.6V1362.4z"/>
		<path class="st0" d="M3041.2,1276.8v-97.9h-321.7V1706h321.7v-100.5h-223.9V1491h176.6v-100.4h-176.6v-113.9H3041.2z"/>
		<path class="st0" d="M3311.8,1178.8v261.1l-95.4-261.1h-108.6V1706h105.5v-259.7l99.8,259.7h104.2v-527.1H3311.8z"/>
	</g>
	<g>
		<path class="st0" d="M1746.9,822.2v1331.8h-33.7v-1197c0-409.6-333-742.6-742.4-742.6c-409.6,0-742.6,333-742.6,742.6v1197h-33.7
			V822.2c0-428.8,347.5-776.3,776.3-776.3C1399.3,45.9,1746.9,393.5,1746.9,822.2z"/>
		<path class="st0" d="M1612,898.2v1129.9h-33.7V1012.8c0-335.2-272.6-607.8-607.6-607.8c-335.2,0-607.8,272.6-607.8,607.8v1015.3
			h-33.7V898.2c0-354.3,287.2-641.5,641.5-641.5C1324.8,256.7,1612,543.9,1612,898.2z"/>
		<path class="st0" d="M1477.2,974.2v928h-33.7v-833.6c0-260.8-212.1-472.9-472.8-472.9c-260.8,0-472.9,212.1-472.9,472.9v833.6
			h-33.7v-928c0-279.8,226.9-506.6,506.6-506.6C1250.3,467.6,1477.2,694.4,1477.2,974.2z"/>
		<path class="st0" d="M1342.4,1050.2v726.1h-33.7v-651.9c0-186.5-151.6-338.1-337.9-338.1c-186.5,0-338.1,151.6-338.1,338.1v651.9
			h-33.7v-726.1c0-205.3,166.5-371.8,371.8-371.8C1175.8,678.4,1342.4,844.9,1342.4,1050.2z"/>
		<path class="st0" d="M1207.5,1126.2v524.2h-33.7v-470.2c0-112.1-91.1-203.3-203.1-203.3c-112.1,0-203.3,91.1-203.3,203.3v470.2
			h-33.7v-524.2c0-130.8,106.2-237,237-237C1101.3,889.2,1207.5,995.4,1207.5,1126.2z"/>
		<path class="st0" d="M1072.7,1202.1v322.3H1039v-288.5c0-37.8-30.7-68.4-68.3-68.4c-37.8,0-68.4,30.7-68.4,68.4v288.5h-33.7
			v-322.3c0-56.3,45.8-102.1,102.1-102.1C1026.8,1100,1072.7,1145.8,1072.7,1202.1z"/>
	</g>
</g>
</svg>
