<?xml version="1.0" encoding="utf-8"?>
<!-- Generator: Adobe Illustrator 27.1.1, SVG Export Plug-In . SVG Version: 6.00 Build 0)  -->
<svg version="1.1" id="Layer_1" xmlns="http://www.w3.org/2000/svg" xmlns:xlink="http://www.w3.org/1999/xlink" x="0px" y="0px"
	 viewBox="0 0 1200 400" style="enable-background:new 0 0 1200 400;" xml:space="preserve">
<style type="text/css">
	.st0{fill:#EB540A;}
</style>
<g>
	<polyline class="st0" points="526.1,53.8 421.1,53.8 415,69.3 453.5,69.3 427.4,152.5 467.2,152.5 487.3,69.3 523.5,69.3 
		526.1,53.8 	"/>
	<polyline class="st0" points="652.3,53.8 619.6,53.8 621.2,89.4 577.8,89.4 579.4,53.8 547.5,53.8 536,152.5 574.9,152.5 
		576.9,108.1 621,108.1 622.9,152.5 663.7,152.5 652.3,53.8 	"/>
	<polyline class="st0" points="778.9,53.8 674.1,53.8 690.4,152.5 818,152.5 809.3,130.5 724,130.5 718.6,107.5 782.9,107.5 
		776.2,88.9 714.2,88.9 709.6,69.3 785,69.3 778.9,53.8 	"/>
	<path class="st0" d="M208,254.1l21.1-35c1.5-2.4,3.6-4.8,6.3-6.8c2.6-2.1,5.7-3.9,9.1-5.5c3.3-1.5,7-2.8,10.7-3.6
		c3.7-0.9,7.5-1.3,11.2-1.3c3.7,0,6.9,0.5,9.6,1.3c2.7,0.9,5,2.1,6.6,3.6c1.6,1.5,2.6,3.4,2.9,5.5c0.3,2.1-0.1,4.4-1.4,6.8l-17.9,35
		H208 M282.7,173c-9.1,0-18.5,1.1-27.6,3.1c-9.2,2-18.3,5-26.7,8.7c-8.6,3.8-16.5,8.3-23.4,13.4c-7,5.2-12.9,11-17,17.3L100,346.2
		h53.9l36.4-60.6h59.6l-31.1,60.6h53.9l57.6-130.8c2.7-6.2,3.4-12.1,2.2-17.3c-1.2-5.1-4.1-9.6-8.5-13.4c-4.3-3.7-10.1-6.7-17-8.7
		C300,174.1,291.9,173,282.7,173"/>
	<path class="st0" d="M932.7,254.1l-18-35.2c-1.2-2.4-1.7-4.8-1.3-6.8c0.3-2.1,1.3-3.9,3-5.5c1.6-1.5,3.9-2.8,6.6-3.6
		c2.7-0.8,6-1.3,9.7-1.3c3.7,0,7.4,0.5,11.1,1.3c3.7,0.8,7.3,2.1,10.6,3.6c3.3,1.5,6.4,3.4,9,5.5c2.6,2.1,4.8,4.4,6.2,6.8l21.1,35.2
		H932.7 M917.3,173c-9.1,0-17.3,1.1-24.2,3.1c-7,2-12.7,5-17,8.7c-4.4,3.8-7.3,8.3-8.5,13.4c-1.2,5.2-0.6,11,2.2,17.3l57.6,130.8
		h53.9l-31.1-60.6h59.6l36.4,60.6h53.9l-87.9-130.8c-4.2-6.2-10.1-12.1-17-17.3c-6.9-5.1-14.8-9.6-23.4-13.4
		c-8.4-3.7-17.5-6.7-26.7-8.7C935.8,174.1,926.4,173,917.3,173"/>
	<path class="st0" d="M396.9,234.3l10.5-32.6h40.4c2,0,3.7,0.1,5.2,0.4c1.4,0.3,2.6,0.7,3.4,1.3c0.9,0.6,1.4,1.3,1.7,2.2
		c0.3,0.9,0.3,1.9,0,3.1l-4,17.2c-0.3,1.4-0.9,2.6-1.8,3.6c-0.9,1-2.1,1.9-3.6,2.6c-1.5,0.7-3.3,1.2-5.3,1.6c-2.1,0.4-4.4,0.5-7,0.5
		H396.9 M473,176.4h-98l-66.6,169.9h52.5l25.7-80.1h42.9c2.7,0,5,0.2,6.9,0.7c1.9,0.5,3.4,1.2,4.6,2.2c1.1,1,1.9,2.2,2.2,3.6
		c0.4,1.5,0.3,3.2-0.2,5.2l-15.9,68.4h53.9l12.2-76c0.4-2.4,0.4-4.6,0.1-6.7c-0.3-2-1-3.9-2-5.5c-1-1.7-2.4-3.1-4.1-4.4
		c-1.7-1.3-3.8-2.4-6.2-3.4c2.8-1.1,5.3-2.4,7.5-3.9c2.2-1.5,4.1-3.2,5.7-5.1c1.6-1.9,2.9-3.9,3.8-6.2c1-2.2,1.7-4.7,2.1-7.3
		l5.1-31.9c0.2-1.5,0.2-2.9,0-4.2c-0.2-1.3-0.7-2.6-1.4-3.7c-0.7-1.2-1.6-2.3-2.8-3.3c-1.2-1-2.6-2-4.2-2.9
		c-1.6-0.9-3.4-1.7-5.2-2.3c-1.8-0.7-3.7-1.2-5.7-1.7c-2-0.4-4-0.8-6.2-1C477.6,176.5,475.4,176.4,473,176.4"/>
	<polyline class="st0" points="669.2,176.4 536.1,176.4 517.1,346.2 689.7,346.2 684.9,306.5 571.2,306.5 572.9,266.2 657.4,266.2 
		654.7,234.3 574.2,234.3 575.5,201.8 672.3,201.8 669.2,176.4 	"/>
	<polyline class="st0" points="825,176.4 781.3,176.4 804.5,249.6 741.8,176.4 696.8,176.4 725.4,346.2 782.1,346.2 758.9,251.6 
		835.6,346.2 891.6,346.2 825,176.4 	"/>
</g>
</svg>
