<?xml version="1.0" encoding="utf-8"?>
<!-- Generator: Adobe Illustrator 27.1.1, SVG Export Plug-In . SVG Version: 6.00 Build 0)  -->
<svg version="1.1" id="Layer_1" xmlns="http://www.w3.org/2000/svg" xmlns:xlink="http://www.w3.org/1999/xlink" x="0px" y="0px"
	 viewBox="0 0 2000 2700" style="enable-background:new 0 0 2000 2700;" xml:space="preserve">
<style type="text/css">
	.st0{fill:#EB540A;}
</style>
<g>
	<g>
		<polyline class="st0" points="860.5,2030.3 662.5,2030.3 650.8,2059.7 723.6,2059.7 674.3,2216.7 749.4,2216.7 787.4,2059.7 
			855.7,2059.7 860.5,2030.3 		"/>
		<polyline class="st0" points="1098.7,2030.3 1037,2030.3 1039.9,2097.6 958.1,2097.6 961.1,2030.3 901,2030.3 879.3,2216.7 
			952.6,2216.7 956.5,2132.8 1039.7,2132.8 1043.2,2216.7 1120.3,2216.7 1098.7,2030.3 		"/>
		<polyline class="st0" points="1337.5,2030.3 1139.9,2030.3 1170.6,2216.7 1411.4,2216.7 1395,2175.1 1234,2175.1 1223.8,2131.6 
			1345.2,2131.6 1332.5,2096.5 1215.6,2096.5 1206.9,2059.7 1349.2,2059.7 1337.5,2030.3 		"/>
		<path class="st0" d="M260.2,2408.2l39.7-66c2.8-4.6,6.9-9,11.8-12.9c4.9-3.9,10.8-7.4,17.1-10.3c6.3-2.9,13.2-5.2,20.2-6.9
			c7-1.6,14.1-2.5,21.1-2.5c6.9,0,13,0.9,18.2,2.5c5.2,1.6,9.4,3.9,12.4,6.9c3.1,2.9,5,6.4,5.5,10.3c0.6,3.9-0.2,8.3-2.6,12.9
			l-33.9,66H260.2 M401.3,2255.2c-17.2,0-34.9,2.1-52.2,5.9c-17.4,3.8-34.5,9.4-50.4,16.4c-16.1,7.1-31.2,15.6-44.1,25.3
			c-13.2,9.8-24.3,20.8-32.2,32.6L56.5,2582.2h101.8l68.6-114.4h112.5l-58.6,114.4h101.6L491,2335.4c5.2-11.8,6.3-22.8,4.1-32.6
			c-2.2-9.6-7.7-18.2-16-25.3c-8.2-7-19-12.6-32.2-16.4C433.9,2257.3,418.5,2255.2,401.3,2255.2"/>
		<path class="st0" d="M1627.9,2408.2l-33.9-66.4c-2.4-4.6-3.1-9-2.5-12.9c0.6-3.9,2.5-7.4,5.6-10.3c3.1-2.9,7.3-5.2,12.5-6.8
			c5.2-1.6,11.3-2.5,18.3-2.5c6.9,0,14,0.9,21,2.5c7,1.6,13.8,3.9,20.1,6.8c6.3,2.9,12.1,6.4,17.1,10.3c5,3.9,9,8.3,11.8,12.9
			l39.9,66.4H1627.9 M1598.7,2255.2c-17.2,0-32.6,2.1-45.6,5.9c-13.1,3.8-24,9.4-32.2,16.4c-8.3,7.1-13.8,15.6-16,25.3
			c-2.3,9.8-1.1,20.8,4.1,32.6l108.6,246.8h101.8l-58.7-114.4h112.5l68.6,114.4h101.6l-165.9-246.8c-7.9-11.8-19-22.8-32.2-32.6
			c-13-9.6-28-18.2-44.1-25.3c-15.9-7-33-12.6-50.4-16.4C1633.6,2257.3,1616,2255.2,1598.7,2255.2"/>
		<path class="st0" d="M616.7,2371l19.8-61.4h76.2c3.8,0,7,0.3,9.7,0.8c2.7,0.5,4.9,1.3,6.5,2.4c1.6,1.1,2.7,2.5,3.2,4.1
			c0.5,1.7,0.5,3.6,0,5.9l-7.6,32.4c-0.6,2.6-1.8,4.9-3.5,6.8c-1.7,2-3.9,3.6-6.7,5c-2.8,1.3-6.1,2.3-10,3c-3.9,0.7-8.3,1-13.2,1
			H616.7 M760.4,2261.6h-185l-125.7,320.6h99l48.6-151.1h81c5.1,0,9.4,0.4,13,1.3c3.6,0.9,6.5,2.3,8.6,4.1c2.2,1.8,3.6,4.1,4.2,6.8
			c0.7,2.8,0.6,6-0.3,9.7l-30,129.1h101.6l22.9-143.4c0.7-4.6,0.8-8.8,0.2-12.6c-0.6-3.8-1.9-7.3-3.8-10.4c-1.9-3.1-4.5-5.9-7.8-8.4
			c-3.3-2.5-7.2-4.6-11.8-6.4c5.3-2.1,10-4.6,14.2-7.4c4.1-2.8,7.7-6,10.7-9.6c3-3.5,5.4-7.5,7.3-11.7c1.9-4.2,3.2-8.8,3.9-13.7
			l9.6-60.2c0.4-2.8,0.5-5.4,0-7.9c-0.4-2.5-1.3-4.8-2.6-7c-1.3-2.2-3.1-4.3-5.3-6.2c-2.2-1.9-4.9-3.7-8-5.4
			c-3.1-1.7-6.4-3.2-9.8-4.4c-3.4-1.3-7-2.3-10.7-3.1c-3.7-0.8-7.6-1.5-11.6-1.9C769,2261.8,764.8,2261.6,760.4,2261.6"/>
		<polyline class="st0" points="1130.6,2261.6 879.3,2261.6 843.6,2582.2 1169.3,2582.2 1160.3,2507.2 945.7,2507.2 948.8,2431.1 
			1108.3,2431.1 1103.1,2371 951.3,2371 953.8,2309.6 1136.4,2309.6 1130.6,2261.6 		"/>
		<polyline class="st0" points="1424.6,2261.6 1342.2,2261.6 1385.8,2399.8 1267.6,2261.6 1182.6,2261.6 1236.7,2582.2 
			1343.7,2582.2 1299.9,2403.6 1444.7,2582.2 1550.3,2582.2 1424.6,2261.6 		"/>
	</g>
	<g>
		<path class="st0" d="M1776.4,894.1v1331.8h-33.7V1029c0-409.6-333-742.6-742.4-742.6c-409.6,0-742.6,333-742.6,742.6v1197H224
			V894.1c0-428.8,347.5-776.3,776.3-776.3C1428.9,117.8,1776.4,465.3,1776.4,894.1z"/>
		<path class="st0" d="M1641.6,970.1V2100h-33.7V1084.7c0-335.2-272.6-607.8-607.6-607.8c-335.2,0-607.8,272.6-607.8,607.8V2100
			h-33.7V970.1c0-354.3,287.2-641.5,641.5-641.5C1354.4,328.6,1641.6,615.8,1641.6,970.1z"/>
		<path class="st0" d="M1506.8,1046.1v928h-33.7v-833.6c0-260.8-212.1-472.9-472.8-472.9c-260.8,0-472.9,212.1-472.9,472.9v833.6
			h-33.7v-928c0-279.8,226.9-506.6,506.6-506.6C1279.9,539.4,1506.8,766.3,1506.8,1046.1z"/>
		<path class="st0" d="M1371.9,1122.1v726.1h-33.7v-651.9c0-186.5-151.6-338.1-337.9-338.1c-186.5,0-338.1,151.6-338.1,338.1v651.9
			h-33.7v-726.1c0-205.3,166.5-371.8,371.8-371.8C1205.4,750.2,1371.9,916.8,1371.9,1122.1z"/>
		<path class="st0" d="M1237.1,1198v524.2h-33.7V1252c0-112.1-91.1-203.3-203.1-203.3c-112.1,0-203.3,91.1-203.3,203.3v470.2h-33.7
			V1198c0-130.8,106.2-237,237-237C1130.9,961.1,1237.1,1067.2,1237.1,1198z"/>
		<path class="st0" d="M1102.3,1274v322.3h-33.7v-288.5c0-37.8-30.7-68.4-68.3-68.4c-37.8,0-68.4,30.7-68.4,68.4v288.5h-33.7V1274
			c0-56.3,45.8-102.1,102.1-102.1C1056.4,1171.9,1102.3,1217.7,1102.3,1274z"/>
	</g>
</g>
</svg>
